# xmcd
#
# Track frame offsets:
# 150
# 11515
# 24128
# 37917
# 51453
# 64920
# 77358
# 90533
# 102526
# 114223
# 132504
# 149008
# 161414
# 174164
# 184803
#
# Disc length: 2610 seconds
#
#
# Revision: 4
# Processed by: cddbd v1.5.1PL2 Copyright (c) Steve Scherf et al.
# Submitted via: FreeRIP 2.945 
#
DISCID=bb0a300f
DTITLE=John Lee Hooker - The Great John Lee Hooker
DYEAR=1900
DGENRE=Blues
TTITLE0=Boom Boom
TTITLE1=Mambo Chillun
TTITLE2=Time is Marchin'
TTITLE3=Every Night
TTITLE4=Baby Lee
TTITLE5=Crawlin' Black Spider
TTITLE6=I'm So Excited
TTITLE7=Mama, You Got a Daughter
TTITLE8=I Love You Honey
TTITLE9=House Rent Boogie
TTITLE10=Trying to Find a Woman
TTITLE11=I'm in the Mood
TTITLE12=Hobo Blues
TTITLE13=Dusty Road
TTITLE14=No Shoes
EXTD=
EXTT0=
EXTT1=
EXTT2=
EXTT3=
EXTT4=
EXTT5=
EXTT6=
EXTT7=
EXTT8=
EXTT9=
EXTT10=
EXTT11=
EXTT12=
EXTT13=
EXTT14=
PLAYORDER=
